Simulation
nRows=31
nColumns=15
endheader
time  TH_x TH_y TH_z SC_y  SC_z  SC_x  AC_y  AC_z  AC_x  GH_y  GH_z  GH_yy  EL_x  PS_y
5.382082397003745  0.000000  0.000000  0.000000  -35.51356453665524  11.983273930205653  20.95147478052365  55.147202799282915  18.447305126373863  15.498340255301192  -2.3707269008278744  57.98427904937763  6.104695209785683  13.641901016932986  120.000000
5.422247191011236  0.000000  0.000000  0.000000  -35.590572445243346  12.012951899334425  21.183768645319493  55.214675078595995  18.359039890051214  15.553890540147853  -2.379945472790396  57.91286754774782  6.187516449489316  13.644094372851557  120.000000
5.4624119850187265  0.000000  0.000000  0.000000  -35.54652391363433  11.992210338785494  21.23076851760079  55.20774036207261  18.27638830750904  15.413766919351945  -2.198147942831245  57.601046976094935  6.273422915522043  13.535590504019018  120.000000
5.502576779026217  0.000000  0.000000  0.000000  -35.37674349709509  11.915898169528623  21.089918713400042  55.12760305506486  18.199136320853405  15.07194247888545  -1.8320692984828368  57.01358293086811  6.328945151198236  13.344231033070958  120.000000
5.542741573033708  0.000000  0.000000  0.000000  -35.08074332701475  11.779052666611062  20.762624542793052  54.978527209531194  18.1271514769614  14.531555928477477  -1.2960986897156366  56.11708229107195  6.315474634209545  13.108189643814233  120.000000
5.582906367041199  0.000000  0.000000  0.000000  -34.662830754663375  11.57723023006689  20.253124193854898  54.766393476404254  18.06048390423292  13.803285129114162  -0.6073974132034095  54.88677703997572  6.197177944830989  12.867142076554632  120.000000
5.623071161048689  0.000000  0.000000  0.000000  -34.13243918503582  11.306221825179987  19.568342005803537  54.497919701316626  17.99980159502777  12.90401462437599  0.2187819118623987  53.312382353214126  5.948292201934022  12.65411247579983  120.000000
5.66323595505618  0.000000  0.000000  0.000000  -33.50431857240292  10.962171918121422  18.71808963428361  54.18156842706447  17.946352998043757  11.856112367820145  1.1727090806291982  51.40218298504085  5.5581801782526155  12.489411051704376  120.000000
5.70340074906367  0.000000  0.000000  0.000000  -32.79892144723351  10.543001241485316  17.714816879535764  53.83040393613019  17.900410891411493  10.687539983900617  2.2513293151016907  49.18487611814682  5.0322598951712045  12.378788080758932  120.000000
5.743565543071161  0.000000  0.000000  0.000000  -32.043027570755626  10.051031127861407  16.57265278866181  53.46542374578179  17.857984250919817  9.43279605368359  3.456097747160697  46.70893258798196  4.389508882709432  12.316198984347785  120.000000
5.7837303370786515  0.000000  0.000000  0.000000  -31.269616322417278  9.49539330014462  15.306361597452263  53.115962223843646  17.80745671701538  8.134019215976613  4.788598829758876  44.03886715895284  3.65906691858225  12.289144229256449  120.000000
5.823895131086142  0.000000  0.000000  0.000000  -30.515084028527387  8.892301537805812  13.931724211969838  52.814246175286456  17.729223998117345  6.841179104301225  6.246513731011352  41.24704676857882  2.877368987269686  12.283180843140402  120.000000
5.864059925093633  0.000000  0.000000  0.000000  -29.81289018062279  8.262336609858224  12.4675977132266  52.58525345974706  17.600478282409796  5.609678383821786  7.821003584894566  38.40182393472488  2.08595308574511  12.284814111181841  120.000000
5.904224719101124  0.000000  0.000000  0.000000  -29.18709503315581  7.627403880653875  10.938207620552658  52.43741115309136  17.403496746204368  4.494814853914591  9.496661019071603  35.555163741473635  1.3288067376001875  12.283520196825924  120.000000
5.944389513108614  0.000000  0.000000  0.000000  -28.648836939398794  7.009335471475333  9.373590769320977  52.36092729516327  17.132488397450633  3.543587734058353  11.255316485557904  32.73633648971209  0.6472103442688493  12.272026347736816  120.000000
5.984554307116105  0.000000  0.000000  0.000000  -28.195368160898045  6.428447778605571  7.808141643048532  52.334056223682595  16.796396590765475  2.787009794207828  13.08121459199703  29.953671942778314  0.07282952360900664  12.246041942172242  120.000000
6.024719101123596  0.000000  0.000000  0.000000  -27.813358533484273  5.902767444875937  6.278090861510549  52.33353557556988  16.416297412965957  2.237448907995765  14.964295260830957  27.20111203671828  -0.37754063956551476  12.20361763322411  120.000000
6.064883895131086  0.000000  0.000000  0.000000  -27.485616379475147  5.447103472662826  4.818383310452741  52.341973875474615  16.019299075478404  1.8890988740586547  16.906953585854836  24.467724409323644  -0.7095183575563406  12.145175569593496  120.000000
6.1050486891385765  0.000000  0.000000  0.000000  -27.196808770468497  5.070657571467201  3.459951171713104  52.35014989638509  15.632814486159461  1.7202689366623738  18.93339420081893  21.747484809618424  -0.9603629307189561  12.075368920547742  120.000000
6.145213483146067  0.000000  0.000000  0.000000  -26.937389254767837  4.775679756449532  2.2281472975159247  52.35731589289787  15.279888871568811  1.698672138898994  21.100782308363502  19.046028007182606  -1.2084191604500691  12.00348694891843  120.000000
6.185378277153558  0.000000  0.000000  0.000000  -26.70482805243907  4.557498567549373  1.1423580595793008  52.36926386169169  14.976655516401792  1.7870835915012009  23.516269266430236  16.382648148285345  -1.58724049464845  11.942483738794627  120.000000
6.225543071161049  0.000000  0.000000  0.000000  -26.50216961464101  4.405881937387586  0.2160803166191313  52.395725603403974  14.731676009995184  1.948194701612011  26.362138267430275  13.788407444424662  -2.3072219185824423  11.907543079079238  120.000000
6.265707865168539  0.000000  0.000000  0.000000  -26.335497102767608  4.308232657027862  -0.5429720106028539  52.447650813274855  14.545808763234835  2.1488839932226904  29.94974179187568  11.302820075685917  -3.7062085461401235  11.914242804443598  120.000000
6.30587265917603  0.000000  0.000000  0.000000  -26.20958818687147  4.25247520987341  -1.1329237921021098  52.534820761133226  14.412561927179212  2.362891062842877  34.8360208080213  8.972701826226928  -6.36382742688285  11.977254173194025  120.000000
6.346037453183521  0.000000  0.000000  0.000000  -26.123355516879098  4.22840208001544  -1.5575388832206079  52.66479837854872  14.319335009958591  2.571924777037337  42.079474472167746  6.85741952856441  -11.356676329830094  12.109232632065755  120.000000
6.386202247191012  0.000000  0.000000  0.000000  -26.068083752274507  4.228161520720002  -1.8255101480922802  52.842883800504104  14.249513845435303  2.765710800042505  53.770060445196556  5.049489977522013  -20.789425137490873  12.320341428070838  120.000000
6.426367041198501  0.000000  0.000000  0.000000  -26.02902279605094  4.2463433457011535  -1.949545793490271  53.07167648162915  14.185310856624769  2.9409162585184796  73.48283998836071  3.726135674046998  -38.25017850350477  12.61825436287574  120.000000
6.466531835205992  0.000000  0.000000  0.000000  -25.988891633258703  4.279704359473199  -1.9455565243917743  53.34992973018754  14.110509556948614  3.0988324568709045  102.34857427441898  3.1747344667486583  -64.88441183813563  13.007209441877013  120.000000
6.506696629213483  0.000000  0.000000  0.000000  -25.932298181528672  4.3259182697588745  -1.8316936824430885  53.67187087176475  14.012581678750877  3.2421341824221677  129.89473552257493  3.47142195536321  -90.2400933415127  13.484538326323651  120.000000
6.546861423220974  0.000000  0.000000  0.000000  -25.85089493087719  4.382198167263303  -1.628672012107999  54.0267148846965  13.884685038449883  3.3727098464130547  147.74293236088295  4.234293269226465  -105.96879738616921  14.036241488789729  120.000000
6.587026217228464  0.000000  0.000000  0.000000  -25.746825604794072  4.445654455313599  -1.3595409806774044  54.398469947796286  13.725629221094426  3.4910073987642365  158.23871538956513  5.104162397906495  -114.45594112197136  14.635708508454513  120.000000
